<svg xmlns="http://www.w3.org/2000/svg" xmlns:xlink="http://www.w3.org/1999/xlink" width="150" zoomAndPan="magnify" viewBox="0 0 112.5 112.499997" height="150" preserveAspectRatio="xMidYMid meet" version="1.0"><defs><clipPath id="cc6bc92080"><path d="M 11.199219 11.199219 L 100.800781 11.199219 L 100.800781 100.800781 L 11.199219 100.800781 Z M 11.199219 11.199219 " clip-rule="nonzero"/></clipPath></defs><g clip-path="url(#cc6bc92080)"><path fill="#d2252d" d="M 100.800781 87.183594 C 100.800781 94.710938 94.703125 100.792969 87.191406 100.792969 L 24.808594 100.792969 C 17.285156 100.792969 11.199219 94.695312 11.199219 87.183594 L 11.199219 24.816406 C 11.199219 17.308594 17.285156 11.207031 24.808594 11.207031 L 87.175781 11.207031 C 94.703125 11.207031 100.785156 17.308594 100.785156 24.816406 Z M 100.800781 87.183594 " fill-opacity="1" fill-rule="nonzero"/></g><path fill="#ffffff" d="M 54.988281 27.789062 C 38.824219 27.789062 25.738281 40.890625 25.738281 57.039062 C 25.738281 69.023438 32.953125 79.304688 43.25 83.839844 C 43.171875 81.796875 43.234375 79.351562 43.761719 77.136719 C 44.335938 74.75 47.523438 61.1875 47.523438 61.1875 C 47.523438 61.1875 46.578125 59.328125 46.578125 56.558594 C 46.578125 52.222656 49.101562 48.988281 52.214844 48.988281 C 54.863281 48.988281 56.164062 50.984375 56.164062 53.367188 C 56.164062 56.046875 54.445312 60.042969 53.578125 63.742188 C 52.835938 66.839844 55.125 69.378906 58.191406 69.378906 C 63.734375 69.378906 67.464844 62.257812 67.464844 53.816406 C 67.464844 47.40625 63.148438 42.609375 55.296875 42.609375 C 46.425781 42.609375 40.898438 49.21875 40.898438 56.621094 C 40.898438 59.160156 41.65625 60.972656 42.832031 62.347656 C 43.375 63 43.453125 63.246094 43.25 63.976562 C 43.125 64.515625 42.785156 65.816406 42.664062 66.3125 C 42.460938 67.054688 41.871094 67.320312 41.207031 67.054688 C 37.121094 65.398438 35.214844 60.925781 35.214844 55.894531 C 35.214844 47.578125 42.214844 37.605469 56.132812 37.605469 C 67.296875 37.605469 74.667969 45.703125 74.667969 54.359375 C 74.667969 65.847656 68.285156 74.410156 58.875 74.410156 C 55.714844 74.410156 52.742188 72.691406 51.71875 70.757812 C 51.71875 70.757812 50.015625 77.507812 49.660156 78.792969 C 49.042969 81.039062 47.816406 83.3125 46.71875 85.0625 C 49.351562 85.835938 52.136719 86.253906 55.019531 86.253906 C 71.183594 86.253906 84.265625 73.15625 84.265625 57.007812 C 84.25 40.90625 71.136719 27.789062 54.988281 27.789062 Z M 54.988281 27.789062 " fill-opacity="1" fill-rule="nonzero"/></svg>