<svg xmlns="http://www.w3.org/2000/svg" xmlns:xlink="http://www.w3.org/1999/xlink" width="150" zoomAndPan="magnify" viewBox="0 0 112.5 112.499997" height="150" preserveAspectRatio="xMidYMid meet" version="1.0"><defs><clipPath id="b792e73e0c"><path d="M 6.269531 6.269531 L 105.578125 6.269531 L 105.578125 105.578125 L 6.269531 105.578125 Z M 6.269531 6.269531 " clip-rule="nonzero"/></clipPath></defs><g clip-path="url(#b792e73e0c)"><path fill="#cb2029" d="M 105.574219 55.914062 C 105.574219 83.335938 83.339844 105.566406 55.917969 105.566406 C 28.496094 105.566406 6.261719 83.335938 6.261719 55.914062 C 6.261719 28.488281 28.496094 6.257812 55.917969 6.257812 C 83.339844 6.257812 105.574219 28.488281 105.574219 55.914062 Z M 105.574219 55.914062 " fill-opacity="1" fill-rule="nonzero"/></g><path fill="#ffffff" d="M 88.507812 58.128906 C 88.507812 63.207031 88.503906 68.601562 87.363281 73.535156 C 86.566406 77 83.730469 79.554688 80.320312 79.941406 C 72.238281 80.839844 64.054688 80.84375 55.914062 80.839844 C 47.769531 80.84375 39.589844 80.839844 31.507812 79.941406 C 28.09375 79.554688 25.257812 77 24.464844 73.535156 C 23.332031 68.601562 23.332031 63.207031 23.332031 58.128906 C 23.332031 53.042969 23.339844 47.660156 24.476562 42.71875 C 25.273438 39.253906 28.109375 36.699219 31.519531 36.316406 C 39.605469 35.414062 47.785156 35.410156 55.925781 35.414062 C 64.070312 35.410156 72.25 35.414062 80.332031 36.316406 C 83.746094 36.699219 86.582031 39.253906 87.375 42.71875 C 88.511719 47.660156 88.507812 53.042969 88.507812 58.128906 Z M 88.507812 58.128906 " fill-opacity="1" fill-rule="nonzero"/><path fill="#cb2029" d="M 49.050781 45.996094 L 49.050781 70.367188 L 67.988281 58.179688 Z M 49.050781 45.996094 " fill-opacity="1" fill-rule="nonzero"/></svg>