<svg xmlns="http://www.w3.org/2000/svg" xmlns:xlink="http://www.w3.org/1999/xlink" width="150" zoomAndPan="magnify" viewBox="0 0 112.5 112.499997" height="150" preserveAspectRatio="xMidYMid meet" version="1.0"><defs><clipPath id="3d5a3afd13"><path d="M 12.292969 39 L 49 39 L 49 96 L 12.292969 96 Z M 12.292969 39 " clip-rule="nonzero"/></clipPath><clipPath id="4c3b919953"><path d="M 35 5.132812 L 97 5.132812 L 97 89 L 35 89 Z M 35 5.132812 " clip-rule="nonzero"/></clipPath><clipPath id="4b4505b11d"><path d="M 24 30 L 101.148438 30 L 101.148438 105 L 24 105 Z M 24 30 " clip-rule="nonzero"/></clipPath></defs><path fill="#87f1e9" d="M 47.21875 44.710938 L 47.21875 40.933594 C 29.726562 38.464844 13.734375 52.132812 13.734375 69.992188 C 13.734375 79.917969 18.722656 88.703125 26.332031 94.015625 C 21.234375 88.597656 18.402344 81.457031 18.40625 74.035156 C 18.40625 58.085938 31.269531 45.082031 47.21875 44.710938 " fill-opacity="1" fill-rule="nonzero"/><path fill="#87f1e9" d="M 47.914062 87.4375 C 55.175781 87.4375 61.097656 81.695312 61.367188 74.535156 L 61.390625 10.648438 L 73.128906 10.648438 C 72.878906 9.3125 72.753906 7.960938 72.753906 6.601562 L 56.71875 6.601562 L 56.691406 70.492188 C 56.324219 80.355469 45.683594 86.414062 36.988281 81.851562 C 39.515625 85.355469 43.582031 87.433594 47.914062 87.4375 M 95.054688 32.335938 L 95.054688 28.785156 C 90.742188 28.789062 86.519531 27.539062 82.910156 25.195312 C 86.078125 28.820312 90.339844 31.324219 95.058594 32.335938 " fill-opacity="1" fill-rule="nonzero"/><path fill="#da004f" d="M 82.910156 25.191406 C 79.371094 21.164062 77.421875 16 77.425781 10.652344 L 73.128906 10.652344 C 74.253906 16.625 77.789062 21.878906 82.910156 25.191406 M 43.242188 56.589844 C 35.804688 56.597656 29.773438 62.59375 29.765625 69.988281 C 29.769531 74.96875 32.550781 79.539062 36.988281 81.851562 C 35.332031 79.578125 34.4375 76.84375 34.4375 74.035156 C 34.445312 66.640625 40.472656 60.640625 47.914062 60.632812 C 49.304688 60.632812 50.636719 60.863281 51.890625 61.253906 L 51.890625 44.980469 C 50.074219 44.722656 48.707031 44.679688 47.21875 44.707031 L 47.21875 57.210938 C 45.933594 56.800781 44.59375 56.59375 43.242188 56.589844 " fill-opacity="1" fill-rule="nonzero"/><path fill="#da004f" d="M 95.054688 32.335938 L 95.054688 44.726562 C 86.742188 44.726562 79.042969 42.082031 72.75 37.59375 L 72.75 69.992188 C 72.75 86.171875 59.515625 99.332031 43.242188 99.332031 C 36.957031 99.332031 31.125 97.359375 26.332031 94.015625 C 31.902344 99.988281 39.722656 103.382812 47.914062 103.378906 C 64.1875 103.378906 77.425781 90.214844 77.425781 74.039062 L 77.425781 41.640625 C 83.921875 46.285156 91.726562 48.78125 99.730469 48.773438 L 99.730469 32.828125 C 98.125 32.828125 96.566406 32.652344 95.054688 32.332031 " fill-opacity="1" fill-rule="nonzero"/><path fill="#1c1c1c" d="M 72.75 69.988281 L 72.75 37.59375 C 79.25 42.238281 87.050781 44.734375 95.054688 44.722656 L 95.054688 32.335938 C 90.335938 31.324219 86.074219 28.816406 82.910156 25.191406 C 77.789062 21.878906 74.253906 16.625 73.128906 10.652344 L 61.390625 10.652344 L 61.367188 74.539062 C 61.097656 81.695312 55.175781 87.4375 47.914062 87.4375 C 43.582031 87.433594 39.515625 85.355469 36.988281 81.851562 C 32.554688 79.539062 29.769531 74.972656 29.765625 69.992188 C 29.777344 60.988281 38.574219 54.5 47.21875 57.210938 L 47.21875 44.710938 C 31.269531 45.082031 18.40625 58.085938 18.40625 74.035156 C 18.40625 81.75 21.421875 88.769531 26.332031 94.015625 C 31.28125 97.480469 37.1875 99.335938 43.242188 99.332031 C 59.515625 99.332031 72.75 86.167969 72.75 69.988281 " fill-opacity="1" fill-rule="nonzero"/><g clip-path="url(#3d5a3afd13)"><path fill="#000000" d="M 25.507812 95.179688 C 17.238281 89.40625 12.300781 79.992188 12.300781 69.992188 C 12.300781 51.300781 29.03125 36.929688 47.421875 39.523438 C 48.125 39.625 48.652344 40.226562 48.652344 40.933594 L 48.652344 44.710938 C 48.652344 45.484375 48.03125 46.113281 47.253906 46.132812 C 32.136719 46.484375 19.839844 59.003906 19.839844 74.035156 C 19.835938 81.121094 22.511719 87.871094 27.378906 93.042969 C 27.878906 93.574219 27.894531 94.398438 27.414062 94.949219 C 26.929688 95.5 26.109375 95.601562 25.507812 95.179688 Z M 15.164062 69.992188 C 15.164062 74.390625 16.21875 78.664062 18.160156 82.5 C 17.378906 79.773438 16.972656 76.929688 16.972656 74.035156 C 16.972656 57.8125 29.671875 44.441406 45.785156 43.347656 L 45.785156 42.199219 C 29.539062 40.640625 15.164062 53.5 15.164062 69.992188 Z M 15.164062 69.992188 " fill-opacity="1" fill-rule="nonzero"/></g><g clip-path="url(#4c3b919953)"><path fill="#000000" d="M 47.914062 88.863281 C 43.132812 88.855469 38.613281 86.546875 35.824219 82.679688 C 35.4375 82.144531 35.472656 81.414062 35.910156 80.914062 C 36.347656 80.417969 37.070312 80.28125 37.660156 80.589844 C 39.371094 81.488281 41.300781 81.964844 43.234375 81.964844 C 43.238281 81.964844 43.238281 81.964844 43.242188 81.964844 C 49.730469 81.964844 55.003906 76.917969 55.261719 70.464844 L 55.289062 6.601562 C 55.289062 5.816406 55.929688 5.179688 56.71875 5.179688 L 72.753906 5.179688 C 73.542969 5.179688 74.183594 5.816406 74.183594 6.601562 C 74.1875 7.871094 74.304688 9.144531 74.539062 10.386719 C 74.703125 11.261719 74.027344 12.074219 73.128906 12.074219 L 62.824219 12.074219 C 62.800781 76.570312 62.800781 74.546875 62.800781 74.589844 C 62.496094 82.59375 55.960938 88.863281 47.914062 88.863281 Z M 42.667969 84.804688 C 50.363281 88.53125 59.585938 83.269531 59.933594 74.507812 L 59.960938 10.648438 C 59.960938 9.863281 60.601562 9.222656 61.394531 9.222656 L 71.46875 9.222656 C 71.425781 8.828125 71.390625 8.425781 71.363281 8.027344 L 58.152344 8.027344 C 58.125 72.527344 58.125 70.503906 58.125 70.546875 C 57.816406 78.796875 50.894531 85.125 42.667969 84.804688 Z M 94.707031 33.71875 C 89.738281 32.640625 85.164062 29.949219 81.828125 26.128906 C 81.359375 25.59375 81.359375 24.792969 81.832031 24.257812 C 82.300781 23.722656 83.09375 23.613281 83.695312 24.003906 C 87.074219 26.199219 90.996094 27.359375 95.035156 27.359375 C 95.925781 27.375 96.488281 28.054688 96.488281 28.785156 C 96.488281 32.726562 96.503906 32.433594 96.460938 32.636719 C 96.300781 33.371094 95.519531 33.917969 94.707031 33.71875 Z M 92.363281 30.058594 C 92.777344 30.214844 93.199219 30.359375 93.625 30.492188 L 93.625 30.167969 C 93.203125 30.144531 92.78125 30.105469 92.363281 30.058594 Z M 92.363281 30.058594 " fill-opacity="1" fill-rule="nonzero"/></g><path fill="#000000" d="M 36.324219 83.113281 C 31.398438 80.546875 28.339844 75.519531 28.332031 69.992188 C 28.34375 60.757812 36.796875 53.792969 45.789062 55.394531 L 45.789062 44.707031 C 45.789062 43.933594 46.414062 43.296875 47.191406 43.285156 C 48.832031 43.253906 50.285156 43.3125 52.09375 43.570312 C 52.800781 43.667969 53.324219 44.269531 53.324219 44.980469 L 53.324219 61.253906 C 53.324219 61.707031 53.105469 62.132812 52.738281 62.402344 C 52.371094 62.671875 51.898438 62.75 51.460938 62.613281 C 43.667969 60.175781 35.878906 66.082031 35.871094 74.039062 C 35.871094 76.558594 36.660156 78.972656 38.148438 81.015625 C 38.539062 81.550781 38.507812 82.285156 38.070312 82.785156 C 37.636719 83.285156 36.910156 83.421875 36.324219 83.113281 Z M 43.238281 58.011719 C 33.585938 58.027344 27.921875 68.789062 33.238281 76.660156 C 31.398438 66.457031 40.441406 57.644531 50.460938 59.4375 L 50.460938 46.242188 C 49.859375 46.1875 49.257812 46.148438 48.652344 46.128906 L 48.652344 57.210938 C 48.652344 57.664062 48.433594 58.089844 48.066406 58.359375 C 47.695312 58.628906 47.222656 58.703125 46.785156 58.566406 C 45.636719 58.203125 44.441406 58.015625 43.238281 58.011719 Z M 82.128906 26.386719 C 76.707031 22.878906 72.910156 17.238281 71.722656 10.914062 C 71.558594 10.039062 72.234375 9.226562 73.128906 9.226562 L 77.425781 9.226562 C 78.21875 9.226562 78.859375 9.867188 78.855469 10.652344 C 78.855469 15.65625 80.679688 20.484375 83.988281 24.253906 C 84.460938 24.789062 84.460938 25.589844 83.992188 26.125 C 83.523438 26.660156 82.730469 26.773438 82.128906 26.386719 Z M 74.929688 12.078125 C 75.359375 13.625 75.96875 15.109375 76.734375 16.507812 C 76.363281 15.0625 76.125 13.582031 76.035156 12.078125 Z M 74.929688 12.078125 " fill-opacity="1" fill-rule="nonzero"/><g clip-path="url(#4b4505b11d)"><path fill="#000000" d="M 25.28125 94.984375 C 24.785156 94.449219 24.773438 93.625 25.253906 93.078125 C 25.734375 92.527344 26.554688 92.429688 27.15625 92.847656 C 31.898438 96.160156 37.460938 97.910156 43.242188 97.910156 C 58.722656 97.910156 71.320312 85.386719 71.320312 69.992188 L 71.320312 37.59375 C 71.320312 37.058594 71.617188 36.570312 72.097656 36.324219 C 72.574219 36.082031 73.148438 36.125 73.585938 36.4375 C 79.492188 40.648438 86.390625 43 93.625 43.273438 L 93.625 32.398438 C 93.582031 31.460938 94.441406 30.742188 95.355469 30.9375 C 96.796875 31.246094 98.269531 31.402344 99.730469 31.402344 C 100.523438 31.402344 101.164062 32.039062 101.164062 32.828125 L 101.164062 48.773438 C 101.164062 49.507812 100.589844 50.199219 99.683594 50.199219 C 92.257812 50.199219 85.113281 48.167969 78.859375 44.304688 L 78.859375 74.039062 C 78.859375 91.003906 64.976562 104.804688 47.914062 104.804688 C 47.714844 104.761719 35.007812 105.414062 25.28125 94.984375 Z M 38.847656 100.449219 C 57.035156 106.648438 75.992188 93.121094 75.992188 74.039062 C 76.003906 39.484375 75.960938 41.617188 76.027344 41.324219 C 75.40625 40.988281 74.789062 40.628906 74.183594 40.257812 L 74.183594 69.992188 C 74.183594 88.617188 57.546875 103.109375 38.847656 100.449219 Z M 88.445312 45.605469 C 91.609375 46.617188 94.917969 47.199219 98.296875 47.324219 L 98.296875 34.207031 C 97.695312 34.171875 97.089844 34.109375 96.488281 34.027344 L 96.488281 44.726562 C 96.488281 45.511719 95.847656 46.148438 95.054688 46.148438 C 92.820312 46.148438 90.613281 45.964844 88.445312 45.605469 Z M 88.445312 45.605469 " fill-opacity="1" fill-rule="nonzero"/></g><path fill="#000000" d="M 25.507812 95.179688 C 25.425781 95.125 25.351562 95.058594 25.28125 94.984375 C 19.925781 89.265625 16.972656 81.824219 16.972656 74.035156 C 16.972656 57.304688 30.445312 43.675781 47.183594 43.285156 C 48.015625 43.269531 48.652344 43.929688 48.652344 44.710938 L 48.652344 57.210938 C 48.652344 57.664062 48.433594 58.089844 48.066406 58.359375 C 47.699219 58.628906 47.222656 58.707031 46.789062 58.570312 C 45.613281 58.199219 44.421875 58.015625 43.242188 58.015625 C 36.609375 58.023438 31.207031 63.394531 31.199219 69.992188 C 31.203125 74.457031 33.679688 78.519531 37.65625 80.589844 C 37.855469 80.695312 38.023438 80.84375 38.15625 81.023438 C 40.40625 84.144531 44.054688 86.007812 47.917969 86.011719 C 54.402344 86.011719 59.679688 80.964844 59.933594 74.511719 L 59.960938 10.652344 C 59.960938 9.863281 60.601562 9.226562 61.390625 9.226562 L 73.128906 9.226562 C 73.820312 9.226562 74.410156 9.714844 74.539062 10.390625 C 75.582031 15.953125 78.921875 20.910156 83.691406 23.996094 C 83.804688 24.070312 83.90625 24.15625 83.992188 24.257812 C 86.933594 27.628906 90.972656 30.003906 95.359375 30.941406 C 96.019531 31.085938 96.488281 31.664062 96.488281 32.335938 L 96.488281 44.722656 C 96.488281 45.464844 95.910156 46.148438 95.007812 46.148438 C 87.582031 46.148438 80.4375 44.121094 74.183594 40.257812 L 74.183594 69.988281 C 74.183594 86.953125 60.304688 100.757812 43.242188 100.757812 C 36.617188 100.757812 30.539062 98.703125 25.507812 95.179688 Z M 27.277344 92.9375 C 31.976562 96.1875 37.484375 97.90625 43.214844 97.90625 C 58.777344 97.90625 71.316406 85.339844 71.316406 69.988281 L 71.316406 37.59375 C 71.316406 36.433594 72.640625 35.757812 73.585938 36.4375 C 79.488281 40.65625 86.390625 43.007812 93.625 43.273438 L 93.625 33.457031 C 89.136719 32.257812 85.039062 29.738281 81.960938 26.277344 C 76.957031 22.980469 73.371094 17.859375 71.96875 12.074219 L 62.824219 12.074219 L 62.800781 74.539062 C 62.800781 74.558594 62.800781 74.574219 62.796875 74.59375 C 62.496094 82.59375 55.960938 88.863281 47.914062 88.863281 C 43.242188 88.859375 38.828125 86.65625 36.027344 82.953125 C 31.277344 80.34375 28.339844 75.40625 28.332031 69.992188 C 28.34375 60.75 36.8125 53.785156 45.785156 55.394531 L 45.785156 46.207031 C 31.351562 47.304688 19.839844 59.492188 19.839844 74.035156 C 19.839844 81.050781 22.480469 87.757812 27.277344 92.9375 Z M 27.277344 92.9375 " fill-opacity="1" fill-rule="nonzero"/></svg>