<svg xmlns="http://www.w3.org/2000/svg" xmlns:xlink="http://www.w3.org/1999/xlink" width="150" zoomAndPan="magnify" viewBox="0 0 112.5 112.499997" height="150" preserveAspectRatio="xMidYMid meet" version="1.0"><defs><clipPath id="111a5657f8"><path d="M 10.070312 10.070312 L 101.910156 10.070312 L 101.910156 101.910156 L 10.070312 101.910156 Z M 10.070312 10.070312 " clip-rule="nonzero"/></clipPath><clipPath id="fa24775f4b"><path d="M 47 23 L 88 23 L 88 101.910156 L 47 101.910156 Z M 47 23 " clip-rule="nonzero"/></clipPath></defs><g clip-path="url(#111a5657f8)"><path fill="#3d5a98" d="M 96.835938 101.90625 C 99.636719 101.90625 101.90625 99.636719 101.90625 96.835938 L 101.90625 15.136719 C 101.90625 12.339844 99.636719 10.070312 96.835938 10.070312 L 15.136719 10.070312 C 12.339844 10.070312 10.070312 12.339844 10.070312 15.136719 L 10.070312 96.835938 C 10.070312 99.636719 12.339844 101.90625 15.136719 101.90625 Z M 96.835938 101.90625 " fill-opacity="1" fill-rule="nonzero"/></g><g clip-path="url(#fa24775f4b)"><path fill="#ffffff" d="M 73.433594 101.90625 L 73.433594 66.339844 L 85.371094 66.339844 L 87.160156 52.480469 L 73.433594 52.480469 L 73.433594 43.632812 C 73.433594 39.621094 74.546875 36.886719 80.304688 36.886719 L 87.640625 36.882812 L 87.640625 24.488281 C 86.371094 24.316406 82.015625 23.941406 76.949219 23.941406 C 66.367188 23.941406 59.121094 30.398438 59.121094 42.261719 L 59.121094 52.480469 L 47.152344 52.480469 L 47.152344 66.339844 L 59.121094 66.339844 L 59.121094 101.90625 Z M 73.433594 101.90625 " fill-opacity="1" fill-rule="nonzero"/></g></svg>