<svg xmlns="http://www.w3.org/2000/svg" xmlns:xlink="http://www.w3.org/1999/xlink" width="150" zoomAndPan="magnify" viewBox="0 0 112.5 112.499997" height="150" preserveAspectRatio="xMidYMid meet" version="1.0"><defs><clipPath id="4c2ccd5339"><path d="M 10.6875 10.6875 L 101.035156 10.6875 L 101.035156 101.035156 L 10.6875 101.035156 Z M 10.6875 10.6875 " clip-rule="nonzero"/></clipPath></defs><g clip-path="url(#4c2ccd5339)"><path fill="#004aad" d="M 101.316406 87.535156 C 101.316406 95.140625 95.148438 101.304688 87.542969 101.304688 L 24.460938 101.304688 C 16.855469 101.304688 10.691406 95.140625 10.691406 87.535156 L 10.691406 24.453125 C 10.691406 16.847656 16.855469 10.679688 24.460938 10.679688 L 87.542969 10.679688 C 95.148438 10.679688 101.316406 16.847656 101.316406 24.453125 Z M 101.316406 87.535156 " fill-opacity="1" fill-rule="nonzero"/></g><path fill="#ffffff" d="M 46.523438 43.011719 C 46.523438 43.457031 46.480469 43.898438 46.394531 44.335938 C 46.308594 44.769531 46.179688 45.195312 46.007812 45.605469 C 45.839844 46.015625 45.632812 46.40625 45.382812 46.773438 C 45.136719 47.144531 44.855469 47.484375 44.542969 47.800781 C 44.226562 48.113281 43.886719 48.394531 43.515625 48.640625 C 43.148438 48.890625 42.757812 49.097656 42.347656 49.269531 C 41.933594 49.4375 41.511719 49.566406 41.074219 49.652344 C 40.640625 49.738281 40.199219 49.785156 39.753906 49.785156 C 39.308594 49.785156 38.871094 49.738281 38.433594 49.652344 C 38 49.566406 37.574219 49.4375 37.164062 49.269531 C 36.753906 49.097656 36.363281 48.890625 35.992188 48.640625 C 35.625 48.394531 35.28125 48.113281 34.96875 47.800781 C 34.652344 47.484375 34.371094 47.144531 34.125 46.773438 C 33.878906 46.40625 33.671875 46.015625 33.5 45.605469 C 33.332031 45.195312 33.203125 44.769531 33.113281 44.335938 C 33.027344 43.898438 32.984375 43.457031 32.984375 43.011719 C 32.984375 42.570312 33.027344 42.128906 33.113281 41.691406 C 33.203125 41.257812 33.332031 40.832031 33.5 40.421875 C 33.671875 40.011719 33.878906 39.621094 34.125 39.253906 C 34.371094 38.882812 34.652344 38.539062 34.96875 38.226562 C 35.28125 37.910156 35.625 37.632812 35.992188 37.382812 C 36.363281 37.136719 36.753906 36.929688 37.164062 36.757812 C 37.574219 36.589844 38 36.460938 38.433594 36.375 C 38.871094 36.285156 39.308594 36.242188 39.753906 36.242188 C 40.199219 36.242188 40.640625 36.285156 41.074219 36.375 C 41.511719 36.460938 41.933594 36.589844 42.347656 36.757812 C 42.757812 36.929688 43.148438 37.136719 43.515625 37.382812 C 43.886719 37.632812 44.226562 37.910156 44.542969 38.226562 C 44.855469 38.539062 45.136719 38.882812 45.382812 39.253906 C 45.632812 39.621094 45.839844 40.011719 46.007812 40.421875 C 46.179688 40.832031 46.308594 41.257812 46.394531 41.691406 C 46.480469 42.128906 46.523438 42.570312 46.523438 43.011719 Z M 46.523438 43.011719 " fill-opacity="1" fill-rule="nonzero"/><path fill="#ffffff" d="M 33.917969 54.773438 L 45.550781 54.773438 L 45.550781 92.191406 L 33.917969 92.191406 Z M 33.917969 54.773438 " fill-opacity="1" fill-rule="nonzero"/><path fill="#ffffff" d="M 52.863281 54.773438 L 63.933594 54.773438 L 63.933594 92.191406 L 52.863281 92.191406 Z M 52.863281 54.773438 " fill-opacity="1" fill-rule="nonzero"/><path fill="#ffffff" d="M 53.34375 74.695312 L 64.414062 74.695312 L 64.414062 92.191406 L 53.34375 92.191406 Z M 53.34375 74.695312 " fill-opacity="1" fill-rule="nonzero"/><path fill="#ffffff" d="M 64.414062 74.695312 C 64.414062 74.695312 64.238281 69.84375 65.519531 67.320312 C 65.519531 67.320312 66.800781 64.210938 70.824219 64.195312 C 70.824219 64.195312 75.539062 63.371094 76.894531 68.050781 C 76.894531 68.050781 77.40625 70.648438 77.40625 71.746094 C 77.40625 72.84375 77.441406 92.191406 77.441406 92.191406 L 89.035156 92.191406 L 89.035156 70.757812 C 89.035156 70.757812 89.878906 58.652344 82.609375 55.335938 C 82.609375 55.335938 70.664062 49.972656 64.179688 59.820312 C 64.179688 59.820312 62.765625 60.796875 62.570312 58.066406 C 62.375 55.335938 60.714844 62.261719 60.667969 62.40625 C 60.617188 62.554688 62.570312 76.207031 62.570312 76.207031 Z M 64.414062 74.695312 " fill-opacity="1" fill-rule="nonzero"/></svg>